<?xml version="1.0" encoding="utf-8"?>
<!-- Generator: Adobe Illustrator 19.0.0, SVG Export Plug-In . SVG Version: 6.00 Build 0)  -->
<svg version="1.1" id="Layer_1" xmlns="http://www.w3.org/2000/svg" xmlns:xlink="http://www.w3.org/1999/xlink" x="0px" y="0px"
	 width="510.9px" height="75.5px" viewBox="0 0 510.9 75.5" style="enable-background:new 0 0 510.9 75.5;" xml:space="preserve">
<g id="XMLID_14_">
	<path id="XMLID_63_" d="M8.5,68c0.8,3.6,3.2,4.2,4.7,4.7c1.6,0.6,2.6,0.7,2.6,0.7L0,73.4c0,0,2.1-0.4,3.1-1.3
		c2.2-1.9,3.9-6,5.6-10.1C8.7,62,8.1,66.3,8.5,68z M13.6,50c1-2.4,2.2-5.5,3.5-8.8c0,0-0.7,3.7,4.6,3.2H41c1.1,0,2.5,0,2.5-0.9
		c0-0.8-4.7-13.4-5.2-14.7l-3.1-8.3c-1.7-4.6-3-6.1-4.1-6.7c-1.7-0.9-2.9,0.5-3.7,2c-0.1,0.3-0.1-0.1-0.1-0.1
		c0.6-1.5,0.9-2.3,0.9-2.3C31,6.3,33,0,33.8,0c0.7,0,1.1,1.4,1.3,1.8c1.7,4,2.9,8,4.5,12.1l19.1,50.8c0.7,1.8,1.5,3.7,2.5,5.4
		c0.8,1.4,1.7,2.2,3.2,2.7c0.4,0.1,2.8,0.8,2.8,0.8L47,73.7c0,0,2.5-0.7,3.1-0.9c1.6-0.5,2.2-1.9,2.2-3.5c0-1.5-0.7-3.9-1.2-5.4
		l-4.7-12.5c-1-2.7-1.2-3.2-4.7-3.2h-20C13.3,48,13.6,50,13.6,50z"/>
	<path id="XMLID_60_" d="M97.8,4.1c-1.4,1.4-1.1,8.1-1.1,14v32.7c0,10.5,0.3,18.7,1.6,20.2c1.4,1.6,6.9,2.6,6.9,2.6H83.3
		c0,0,4.3-1.3,5.3-2.7c1.6-2.2,1.6-8.8,1.6-11.6V11.9c0-2.7-0.3-5.9-3-7.3c-0.8-0.4-3.2-1.5-3.2-1.5h15C99.3,3.1,98.4,3.6,97.8,4.1z
		 M107.9,2.9c0,0,6.6,0.3,9.7,1.5c7.4,2.8,12.2,9.1,12.3,17.3c0.3,13.1-8.5,22.3-21,22.3c0,0,14.5-4.6,13.6-21.4
		S107.9,2.9,107.9,2.9z"/>
	<path id="XMLID_30_" d="M205.4,12.8c0.1-0.3-0.4-3.2-1.9-5.1c-2.5-3.2-4.8-4.2-4.8-4.2h17.1c0,0-3.2,0.6-4.4,1.5
		c-3.3,2.4-4,5-5.3,7.7L205.4,12.8z M185.8,59.7c-2.9,6.6-4.9,11.3-4.9,11.3c-1.6,3.8-2,4.5-2.4,4.5c-0.5,0-0.9-1.4-2.2-4.5
		l-24.4-57.9c-0.8-1.9-1.5-3.9-2.6-5.7c-1.4-2.2-7.6-3.7-7.6-4h18.9c0,0.3-1.4,0.7-1.6,0.9c-0.8,0.6-1.2,1.4-1.2,2.4
		c0,1.7,2.5,9.4,3.8,12.5l15.2,36.3c3.5,8.9,7.2,6.3,7.5,5.7c0.1-0.2,0.5-0.2,1.1-1.4L185.8,59.7z"/>
</g>
<g id="XMLID_68_">
	<path id="XMLID_116_" d="M251.9,38.4l-1,3h-1.3l3.2-9.5h1.5l3.2,9.5h-1.3l-1-3H251.9z M255.1,37.4l-0.9-2.7
		c-0.2-0.6-0.4-1.2-0.5-1.7h0c-0.1,0.6-0.3,1.1-0.5,1.7l-0.9,2.7H255.1z"/>
	<path id="XMLID_113_" d="M263.7,32c0.6-0.1,1.5-0.2,2.4-0.2c1.3,0,2.2,0.2,2.7,0.8c0.5,0.4,0.7,1.1,0.7,1.8c0,1.3-0.8,2.1-1.8,2.4
		v0c0.7,0.3,1.2,0.9,1.4,1.9c0.3,1.3,0.5,2.2,0.7,2.6h-1.3c-0.2-0.3-0.4-1.1-0.6-2.3c-0.3-1.3-0.8-1.8-1.9-1.8h-1.2v4.1h-1.2V32z
		 M264.9,36.3h1.3c1.3,0,2.1-0.7,2.1-1.8c0-1.2-0.9-1.8-2.2-1.8c-0.6,0-1,0.1-1.2,0.1V36.3z"/>
	<path id="XMLID_111_" d="M282.6,41.1c-0.5,0.2-1.4,0.5-2.5,0.5c-2.7,0-4.7-1.7-4.7-4.8c0-3,2-5,5-5c1.2,0,1.9,0.3,2.3,0.4l-0.3,1
		c-0.5-0.2-1.1-0.4-1.9-0.4c-2.2,0-3.7,1.4-3.7,3.9c0,2.3,1.3,3.8,3.6,3.8c0.7,0,1.5-0.2,2-0.4L282.6,41.1z"/>
	<path id="XMLID_109_" d="M290,31.9v4h4.6v-4h1.2v9.5h-1.2v-4.5H290v4.5h-1.2v-9.5H290z"/>
	<path id="XMLID_107_" d="M303.9,31.9v9.5h-1.2v-9.5H303.9z"/>
	<path id="XMLID_105_" d="M312.5,32.9h-2.9v-1h7v1h-2.9v8.5h-1.2V32.9z"/>
	<path id="XMLID_103_" d="M327.3,36.9h-3.7v3.4h4.1v1h-5.3v-9.5h5.1v1h-3.9v3h3.7V36.9z"/>
	<path id="XMLID_101_" d="M340.6,41.1c-0.5,0.2-1.4,0.5-2.5,0.5c-2.7,0-4.7-1.7-4.7-4.8c0-3,2-5,5-5c1.2,0,1.9,0.3,2.3,0.4l-0.3,1
		c-0.5-0.2-1.1-0.4-1.9-0.4c-2.2,0-3.7,1.4-3.7,3.9c0,2.3,1.3,3.8,3.6,3.8c0.7,0,1.5-0.2,2-0.4L340.6,41.1z"/>
	<path id="XMLID_99_" d="M349,32.9h-2.9v-1h7v1h-2.9v8.5H349V32.9z"/>
	<path id="XMLID_97_" d="M360,31.9v5.6c0,2.1,0.9,3,2.2,3c1.4,0,2.3-0.9,2.3-3v-5.6h1.2v5.5c0,2.9-1.5,4.1-3.6,4.1
		c-1.9,0-3.4-1.1-3.4-4.1v-5.6H360z"/>
	<path id="XMLID_94_" d="M372.6,32c0.6-0.1,1.5-0.2,2.4-0.2c1.3,0,2.2,0.2,2.7,0.8c0.5,0.4,0.7,1.1,0.7,1.8c0,1.3-0.8,2.1-1.8,2.4v0
		c0.7,0.3,1.2,0.9,1.4,1.9c0.3,1.3,0.5,2.2,0.7,2.6h-1.3c-0.2-0.3-0.4-1.1-0.6-2.3c-0.3-1.3-0.8-1.8-1.9-1.8h-1.2v4.1h-1.2V32z
		 M373.8,36.3h1.3c1.3,0,2.1-0.7,2.1-1.8c0-1.2-0.9-1.8-2.2-1.8c-0.6,0-1,0.1-1.2,0.1V36.3z"/>
	<path id="XMLID_92_" d="M389.8,36.9h-3.7v3.4h4.1v1h-5.3v-9.5h5.1v1h-3.9v3h3.7V36.9z"/>
	<path id="XMLID_88_" d="M410,41.4c-0.3-0.3-0.5-0.5-0.9-0.9c-0.8,0.8-1.7,1.1-2.8,1.1c-1.8,0-2.9-1.2-2.9-2.7
		c0-1.3,0.8-2.2,1.9-2.8v0c-0.5-0.6-0.8-1.3-0.8-2c0-1.2,0.8-2.3,2.4-2.3c1.2,0,2.1,0.8,2.1,2c0,1-0.6,1.8-2.1,2.5v0
		c0.8,0.9,1.7,2,2.3,2.6c0.4-0.7,0.7-1.6,0.9-2.8h1.1c-0.3,1.5-0.7,2.7-1.4,3.5c0.5,0.5,1,1.1,1.6,1.7H410z M408.5,39.8
		c-0.6-0.6-1.6-1.8-2.7-3c-0.5,0.3-1.2,0.9-1.2,1.9c0,1.1,0.8,1.9,1.9,1.9C407.4,40.6,408.1,40.2,408.5,39.8z M405.6,34
		c0,0.7,0.3,1.2,0.7,1.7c1-0.5,1.6-1.1,1.6-1.9c0-0.6-0.3-1.2-1.1-1.2C406.1,32.6,405.6,33.2,405.6,34z"/>
	<path id="XMLID_86_" d="M426.1,31.9v9.5h-1.2v-9.5H426.1z"/>
	<path id="XMLID_84_" d="M432.9,41.4v-9.5h1.3l3,4.8c0.7,1.1,1.3,2.1,1.7,3.1l0,0c-0.1-1.3-0.1-2.4-0.1-3.9v-4h1.2v9.5h-1.2l-3-4.8
		c-0.7-1.1-1.3-2.1-1.8-3.2l0,0c0.1,1.2,0.1,2.3,0.1,3.9v4.1H432.9z"/>
	<path id="XMLID_82_" d="M448.7,32.9h-2.9v-1h7v1h-2.9v8.5h-1.2V32.9z"/>
	<path id="XMLID_80_" d="M463.4,36.9h-3.7v3.4h4.1v1h-5.3v-9.5h5.1v1h-3.9v3h3.7V36.9z"/>
	<path id="XMLID_77_" d="M470.1,32c0.6-0.1,1.5-0.2,2.4-0.2c1.3,0,2.2,0.2,2.7,0.8c0.5,0.4,0.7,1.1,0.7,1.8c0,1.3-0.8,2.1-1.8,2.4v0
		c0.7,0.3,1.2,0.9,1.4,1.9c0.3,1.3,0.5,2.2,0.7,2.6H475c-0.2-0.3-0.4-1.1-0.6-2.3c-0.3-1.3-0.8-1.8-1.9-1.8h-1.2v4.1h-1.2V32z
		 M471.3,36.3h1.3c1.3,0,2.1-0.7,2.1-1.8c0-1.2-0.9-1.8-2.2-1.8c-0.6,0-1,0.1-1.2,0.1V36.3z"/>
	<path id="XMLID_75_" d="M483.6,31.9v9.5h-1.2v-9.5H483.6z"/>
	<path id="XMLID_72_" d="M498.5,36.5c0,3.3-2,5-4.4,5c-2.5,0-4.3-1.9-4.3-4.8c0-3,1.9-5,4.4-5C496.8,31.7,498.5,33.7,498.5,36.5z
		 M491.1,36.7c0,2,1.1,3.8,3,3.8c1.9,0,3-1.8,3-3.9c0-1.9-1-3.9-3-3.9C492.1,32.7,491.1,34.6,491.1,36.7z"/>
	<path id="XMLID_69_" d="M504.8,32c0.6-0.1,1.5-0.2,2.4-0.2c1.3,0,2.2,0.2,2.7,0.8c0.5,0.4,0.7,1.1,0.7,1.8c0,1.3-0.8,2.1-1.8,2.4v0
		c0.7,0.3,1.2,0.9,1.4,1.9c0.3,1.3,0.5,2.2,0.7,2.6h-1.3c-0.2-0.3-0.4-1.1-0.6-2.3c-0.3-1.3-0.8-1.8-1.9-1.8H506v4.1h-1.2V32z
		 M506,36.3h1.3c1.3,0,2.1-0.7,2.1-1.8c0-1.2-0.9-1.8-2.2-1.8c-0.6,0-1,0.1-1.2,0.1V36.3z"/>
</g>
</svg>
