<?xml version="1.0" encoding="utf-8"?>
<!-- Generator: Adobe Illustrator 16.0.0, SVG Export Plug-In . SVG Version: 6.00 Build 0)  -->
<!DOCTYPE svg PUBLIC "-//W3C//DTD SVG 1.1//EN" "http://www.w3.org/Graphics/SVG/1.1/DTD/svg11.dtd">
<svg version="1.1" id="Layer_1" xmlns="http://www.w3.org/2000/svg" xmlns:xlink="http://www.w3.org/1999/xlink" x="0px" y="0px"
	 width="238.6px" height="51.061px" viewBox="0 0 238.6 51.061" enable-background="new 0 0 238.6 51.061" xml:space="preserve">
<g>
	<path fill="#1D52A4" d="M18.477,25.689c-0.092-1.296,0.336-2.624,1.331-3.706l4.636-5.042L10.422,1.966
		C8.326-0.272,4.604-0.566,2.107,1.314c-2.496,1.878-2.821,5.214-0.727,7.453l17.077,18.239V26.01
		C18.458,25.901,18.468,25.792,18.477,25.689z"/>
	<path fill="#1D52A4" d="M105.704,0.026c-0.097-0.004-0.187-0.025-0.284-0.025H69.968c-3.415,0-6.18,2.368-6.18,5.291
		c0,2.919,2.765,5.29,6.18,5.29h23.495l7.923-8.647C102.497,0.722,104.084,0.087,105.704,0.026z"/>
	<path fill="#1D52A4" d="M69.141,50.901c0.057,0.002,0.111,0.015,0.171,0.015h35.846c3.26,0,5.903-2.369,5.903-5.289
		c0-2.923-2.643-5.292-5.903-5.292H81.471l-7.928,8.652C72.413,50.218,70.791,50.861,69.141,50.901z"/>
	<path fill="#4299D4" d="M105.704,0.026c3.279,0.13,5.897,2.427,5.897,5.266c0,2.919-2.77,5.29-6.181,5.29H93.463L64.425,42.269
		c-2.071,2.258-1.706,5.59,0.809,7.445c1.101,0.809,2.425,1.201,3.746,1.201c0.054,0,0.107-0.013,0.161-0.015
		c-3.178-0.085-5.73-2.407-5.73-5.274c0-2.923,2.641-5.292,5.901-5.292h12.16L110.507,8.65c2.067-2.257,1.703-5.59-0.815-7.446
		C108.525,0.344,107.103-0.025,105.704,0.026z"/>
	<path fill="#1D52A4" d="M111.602,5.292c0-2.839-2.619-5.135-5.897-5.266c-1.62,0.061-3.207,0.696-4.317,1.909l-7.923,8.647h11.957
		C108.832,10.582,111.602,8.211,111.602,5.292z"/>
	<path fill="#3282C5" d="M111.602,5.292c0-2.839-2.619-5.135-5.897-5.266c-1.62,0.061-3.207,0.696-4.317,1.909l-7.923,8.647h11.957
		C108.832,10.582,111.602,8.211,111.602,5.292z"/>
	<path fill="#1D52A4" d="M63.41,45.626c0,2.867,2.553,5.189,5.73,5.274c1.65-0.04,3.272-0.683,4.403-1.914l7.928-8.652h-12.16
		C66.051,40.334,63.41,42.704,63.41,45.626z"/>
	<path fill="#3282C5" d="M63.41,45.626c0,2.867,2.553,5.189,5.73,5.274c1.65-0.04,3.272-0.683,4.403-1.914l7.928-8.652h-12.16
		C66.051,40.334,63.41,42.704,63.41,45.626z"/>
	<path fill="#1D52A4" d="M173.481,8.549c0.837-0.9,1.356-2.021,1.356-3.257c0-1.225-0.51-2.338-1.334-3.235
		C175.128,3.935,175.178,6.611,173.481,8.549z"/>
	<path fill="#1D52A4" d="M172.861,1.446c0.138,0.114,0.271,0.231,0.395,0.355C173.128,1.679,173.002,1.557,172.861,1.446z"/>
	<path fill="#1D52A4" d="M168.886,0.026c-0.095-0.004-0.185-0.025-0.28-0.025h-35.688c-3.439,0-6.23,2.368-6.23,5.291
		c0,2.919,2.791,5.29,6.23,5.29h23.445l7.923-8.647C165.462,0.654,167.169,0.018,168.886,0.026z"/>
	<path fill="#1D52A4" d="M132.041,50.902c0.058,0.001,0.111,0.014,0.17,0.014h36.717c3.26,0,5.901-2.369,5.901-5.289
		c0-2.923-2.642-5.292-5.901-5.292H144.37l-7.927,8.652C135.315,50.218,133.688,50.862,132.041,50.902z"/>
	<path fill="#4299D4" d="M173.481,8.549c-1.142,1.229-2.89,2.033-4.876,2.033h-12.242l-29.038,31.687
		c-2.071,2.258-1.706,5.59,0.813,7.445c1.096,0.809,2.425,1.201,3.745,1.201c0.053,0,0.105-0.013,0.158-0.014
		c-3.18-0.082-5.731-2.408-5.731-5.275c0-2.923,2.641-5.292,5.901-5.292h12.159L173.407,8.65
		C173.436,8.618,173.454,8.581,173.481,8.549z"/>
	<path opacity="0.8" fill="#89D3E7" d="M173.256,1.801c0.086,0.083,0.168,0.168,0.248,0.256
		C173.429,1.968,173.34,1.886,173.256,1.801z"/>
	<path opacity="0.8" fill="#89D3E7" d="M172.595,1.204c-1.089-0.801-2.403-1.172-3.709-1.178c1.538,0.059,2.925,0.582,3.976,1.419
		C172.77,1.367,172.694,1.278,172.595,1.204z"/>
	<path fill="#1D52A4" d="M173.481,8.549c1.696-1.938,1.646-4.614,0.022-6.492c-0.08-0.088-0.162-0.172-0.248-0.256
		c-0.123-0.125-0.257-0.241-0.395-0.355c-1.051-0.838-2.438-1.361-3.976-1.419c-1.717-0.009-3.424,0.627-4.6,1.909l-7.923,8.647
		h12.242C170.592,10.582,172.34,9.778,173.481,8.549z"/>
	<path fill="#3282C5" d="M173.481,8.549c1.696-1.938,1.646-4.614,0.022-6.492c-0.08-0.088-0.162-0.172-0.248-0.256
		c-0.123-0.125-0.257-0.241-0.395-0.355c-1.051-0.838-2.438-1.361-3.976-1.419c-1.717-0.009-3.424,0.627-4.6,1.909l-7.923,8.647
		h12.242C170.592,10.582,172.34,9.778,173.481,8.549z"/>
	<path fill="#1D52A4" d="M126.31,45.626c0,2.867,2.552,5.193,5.731,5.275c1.646-0.04,3.274-0.684,4.402-1.915l7.927-8.652h-12.159
		C128.95,40.334,126.31,42.704,126.31,45.626z"/>
	<path fill="#3282C5" d="M126.31,45.626c0,2.867,2.552,5.193,5.731,5.275c1.646-0.04,3.274-0.684,4.402-1.915l7.927-8.652h-12.159
		C128.95,40.334,126.31,42.704,126.31,45.626z"/>
	<path fill="#4299D4" d="M38.247,1.927L24.443,16.942l4.617,4.931c2.097,2.24,1.771,5.574-0.728,7.454
		c-1.103,0.832-2.452,1.239-3.791,1.239c-1.682,0-3.353-0.645-4.523-1.893l-1.561-1.668v18.621c0,2.92,2.643,5.289,5.901,5.289
		c3.258,0,5.9-2.369,5.9-5.289V27.248L47.351,8.657c2.075-2.255,1.716-5.59-0.798-7.446C44.039-0.651,40.319-0.329,38.247,1.927z"/>
	<path fill="#1D52A4" d="M24.542,30.566c1.339,0,2.688-0.407,3.791-1.239c2.499-1.88,2.825-5.214,0.728-7.454l-4.617-4.931
		l-4.636,5.042c-0.994,1.082-1.422,2.41-1.331,3.706c-0.008,0.103-0.019,0.211-0.019,0.321v0.995l1.561,1.668
		C21.189,29.921,22.86,30.566,24.542,30.566z"/>
	<path fill="#3282C5" d="M24.542,30.566c1.339,0,2.688-0.407,3.791-1.239c2.499-1.88,2.825-5.214,0.728-7.454l-4.617-4.931
		l-4.636,5.042c-0.994,1.082-1.422,2.41-1.331,3.706c-0.008,0.103-0.019,0.211-0.019,0.321v0.995l1.561,1.668
		C21.189,29.921,22.86,30.566,24.542,30.566z"/>
	<path fill="#1D52A4" d="M208.375,25.834c-0.094-1.297,0.336-2.624,1.332-3.703l4.635-5.042L200.321,2.109
		c-2.099-2.237-5.817-2.526-8.313-0.651c-2.499,1.879-2.825,5.216-0.727,7.456l17.075,18.236v-0.994
		C208.357,26.046,208.367,25.94,208.375,25.834z"/>
	<path fill="#4299D4" d="M236.45,1.355c-2.513-1.856-6.231-1.535-8.306,0.718l-13.803,15.016l4.617,4.931
		c2.096,2.237,1.77,5.573-0.727,7.452c-1.105,0.834-2.451,1.239-3.793,1.239c-1.682,0-3.354-0.642-4.517-1.89l-1.565-1.672v18.623
		c0,2.921,2.643,5.288,5.9,5.288c3.26,0,5.903-2.367,5.903-5.288V27.392l17.093-18.59C239.324,6.547,238.969,3.214,236.45,1.355z"/>
	<path fill="#1D52A4" d="M214.439,30.711c1.342,0,2.688-0.405,3.793-1.239c2.496-1.879,2.822-5.215,0.727-7.452l-4.617-4.931
		l-4.635,5.042c-0.996,1.079-1.426,2.405-1.332,3.703c-0.008,0.106-0.018,0.212-0.018,0.322v0.994l1.565,1.672
		C211.086,30.07,212.758,30.711,214.439,30.711z"/>
	<path fill="#3282C5" d="M214.439,30.711c1.342,0,2.688-0.405,3.793-1.239c2.496-1.879,2.822-5.215,0.727-7.452l-4.617-4.931
		l-4.635,5.042c-0.996,1.079-1.426,2.405-1.332,3.703c-0.008,0.106-0.018,0.212-0.018,0.322v0.994l1.565,1.672
		C211.086,30.07,212.758,30.711,214.439,30.711z"/>
</g>
<g>
</g>
<g>
</g>
<g>
</g>
<g>
</g>
<g>
</g>
<g>
</g>
</svg>
